<?xml version="1.0" standalone="no"?>
<svg xmlns="http://www.w3.org/2000/svg" xmlns:xlink="http://www.w3.org/1999/xlink" width="784pt" height="647pt" viewBox="0.00 0.00 784.17 647">
<g id="graph0" class="graph" transform="translate(57.57114839883718,565.6350205213337) scale(0.8705505632961257)" data-name="G">

<polygon fill="#2e3e56" stroke="none" points="-4,4 -4,-643 780.17,-643 780.17,4 -4,4"/>
<g id="clust1" class="cluster" data-name="clusterGovernanceERC20">

<path fill="#445773" stroke="#445773" d="M20,-147C20,-147 756.17,-147 756.17,-147 762.17,-147 768.17,-153 768.17,-159 768.17,-159 768.17,-482 768.17,-482 768.17,-488 762.17,-494 756.17,-494 756.17,-494 20,-494 20,-494 14,-494 8,-488 8,-482 8,-482 8,-159 8,-159 8,-153 14,-147 20,-147" style=""/>
<text text-anchor="middle" x="388.09" y="-477.4" font-family="Times,serif" font-size="14.00" fill="#f0f0f0" style="">GovernanceERC20</text>
</g>
<g id="clust3" class="cluster" data-name="cluster_01">

<polygon fill="#2e3e56" stroke="black" points="33.93,-502 33.93,-631 359.78,-631 359.78,-502 33.93,-502" style=""/>
<text text-anchor="middle" x="196.86" y="-614.4" font-family="Times,serif" font-size="14.00" style="">Legend</text>
</g>
<g id="clust2" class="cluster" data-name="clusterDaoAuthorizableUpgradeable">

<path fill="#3b4b63" stroke="#e8726d" stroke-dasharray="5,2" d="M237.86,-8C237.86,-8 411.71,-8 411.71,-8 417.71,-8 423.71,-14 423.71,-20 423.71,-20 423.71,-127 423.71,-127 423.71,-133 417.71,-139 411.71,-139 411.71,-139 237.86,-139 237.86,-139 231.86,-139 225.86,-133 225.86,-127 225.86,-127 225.86,-20 225.86,-20 225.86,-14 231.86,-8 237.86,-8" style=""/>
<text text-anchor="middle" x="324.78" y="-122.4" font-family="Times,serif" font-size="14.00" fill="#f0f0f0" style="">DaoAuthorizableUpgradeable</text>
</g>
<!-- GovernanceERC20.&lt;Constructor&gt; -->
<g id="node1" class="node" pointer-events="visible" data-name="GovernanceERC20.&lt;Constructor&gt;">

<ellipse fill="#ff9797" stroke="#ff9797" stroke-width="3" cx="106.93" cy="-443" rx="67.55" ry="18"/>
<text text-anchor="middle" x="106.93" y="-438.8" font-family="Times,serif" font-size="14.00">&lt;Constructor&gt;</text>
</g>
<!-- GovernanceERC20.initialize --><g id="edge1" class="edge" data-name="GovernanceERC20.&lt;Constructor&gt;-&gt;GovernanceERC20.initialize" data-comment="GovernanceERC20.initialize">

<path fill="none" stroke="#1bc6a6" stroke-width="2" d="M175.93,-443C204.95,-443 238.45,-443 266.21,-443"/>
<polygon fill="#1bc6a6" stroke="#1bc6a6" stroke-width="2" points="265.91,-446.5 275.91,-443 265.91,-439.5 265.91,-446.5"/>
</g>
<g id="node2" class="node" pointer-events="visible" data-name="GovernanceERC20.initialize">

<ellipse fill="#edad56" stroke="#edad56" stroke-width="3" cx="324.78" cy="-443" rx="44.64" ry="18"/>
<text text-anchor="middle" x="324.78" y="-438.8" font-family="Times,serif" font-size="14.00">initialize</text>
</g>
<!-- GovernanceERC20.&lt;Constructor&gt;&#45;&gt;GovernanceERC20.initialize -->

<!-- GovernanceERC20.MintSettingsArrayLengthMismatch --><g id="edge2" class="edge" data-name="GovernanceERC20.initialize-&gt;GovernanceERC20.MintSettingsArrayLengthMismatch" data-comment="GovernanceERC20.MintSettingsArrayLengthMismatch">

<path fill="none" stroke="#1bc6a6" stroke-width="2" d="M370.23,-440.43C389.01,-437.12 409.73,-430.2 423.71,-416 458.5,-380.67 415.29,-341.65 451.71,-308 456.25,-303.81 461.2,-300.15 466.44,-296.97"/>
<polygon fill="#1bc6a6" stroke="#1bc6a6" stroke-width="2" points="467.73,-300.25 474.93,-292.48 464.46,-294.06 467.73,-300.25"/>
</g>
<g id="node6" class="node" pointer-events="visible" data-name="GovernanceERC20.MintSettingsArrayLengthMismatch">

<ellipse fill="#edad56" stroke="#edad56" stroke-width="3" cx="605.94" cy="-281" rx="149.37" ry="18"/>
<text text-anchor="middle" x="605.94" y="-276.8" font-family="Times,serif" font-size="14.00">MintSettingsArrayLengthMismatch</text>
</g>
<!-- GovernanceERC20.initialize&#45;&gt;GovernanceERC20.MintSettingsArrayLengthMismatch -->

<!-- GovernanceERC20.__ERC20_init --><g id="edge3" class="edge" data-name="GovernanceERC20.initialize-&gt;GovernanceERC20.__ERC20_init" data-comment="GovernanceERC20.__ERC20_init">

<path fill="none" stroke="#1bc6a6" stroke-width="2" d="M369.31,-438.78C387.7,-435.15 408.36,-428.43 423.71,-416 444.72,-398.99 429.92,-378 451.71,-362 472.76,-346.54 499.76,-338.91 525.22,-335.4"/>
<polygon fill="#1bc6a6" stroke="#1bc6a6" stroke-width="2" points="525.4,-338.9 534.94,-334.29 524.61,-331.94 525.4,-338.9"/>
</g>
<g id="node7" class="node" pointer-events="visible" data-name="GovernanceERC20.__ERC20_init">

<ellipse fill="#edad56" stroke="#edad56" stroke-width="3" cx="605.94" cy="-335" rx="66.68" ry="18"/>
<text text-anchor="middle" x="605.94" y="-330.8" font-family="Times,serif" font-size="14.00">__ERC20_init</text>
</g>
<!-- GovernanceERC20.initialize&#45;&gt;GovernanceERC20.__ERC20_init -->

<!-- GovernanceERC20.__ERC20Permit_init --><g id="edge4" class="edge" data-name="GovernanceERC20.initialize-&gt;GovernanceERC20.__ERC20Permit_init" data-comment="GovernanceERC20.__ERC20Permit_init">

<path fill="none" stroke="#1bc6a6" stroke-width="2" d="M365.69,-434.05C390.42,-428.6 422.85,-421.63 451.71,-416 473.87,-411.67 497.88,-407.3 520.19,-403.36"/>
<polygon fill="#1bc6a6" stroke="#1bc6a6" stroke-width="2" points="520.51,-406.86 529.76,-401.68 519.3,-399.96 520.51,-406.86"/>
</g>
<g id="node8" class="node" pointer-events="visible" data-name="GovernanceERC20.__ERC20Permit_init">

<ellipse fill="#edad56" stroke="#edad56" stroke-width="3" cx="605.94" cy="-389" rx="92.68" ry="18"/>
<text text-anchor="middle" x="605.94" y="-384.8" font-family="Times,serif" font-size="14.00">__ERC20Permit_init</text>
</g>
<!-- GovernanceERC20.initialize&#45;&gt;GovernanceERC20.__ERC20Permit_init -->

<!-- GovernanceERC20.__DaoAuthorizableUpgradeable_init --><g id="edge5" class="edge" data-name="GovernanceERC20.initialize-&gt;GovernanceERC20.__DaoAuthorizableUpgradeable_init" data-comment="GovernanceERC20.__DaoAuthorizableUpgradeable_init">

<path fill="none" stroke="#1bc6a6" stroke-width="2" d="M370.64,-443C389.53,-443 412.82,-443 437.31,-443"/>
<polygon fill="#1bc6a6" stroke="#1bc6a6" stroke-width="2" points="437.18,-446.5 447.18,-443 437.18,-439.5 437.18,-446.5"/>
</g>
<g id="node9" class="node" pointer-events="visible" data-name="GovernanceERC20.__DaoAuthorizableUpgradeable_init">

<ellipse fill="#edad56" stroke="#edad56" stroke-width="3" cx="605.94" cy="-443" rx="154.46" ry="18"/>
<text text-anchor="middle" x="605.94" y="-438.8" font-family="Times,serif" font-size="14.00">__DaoAuthorizableUpgradeable_init</text>
</g>
<!-- GovernanceERC20.initialize&#45;&gt;GovernanceERC20.__DaoAuthorizableUpgradeable_init -->

<!-- GovernanceERC20._mint --><g id="edge6" class="edge" data-name="GovernanceERC20.initialize-&gt;GovernanceERC20._mint" data-comment="GovernanceERC20._mint">

<path fill="none" stroke="#1bc6a6" stroke-width="2" d="M370.53,-441C389.49,-437.82 410.27,-430.83 423.71,-416 472.79,-361.87 400.13,-305.75 451.71,-254 479.32,-226.3 524.71,-221.3 558.94,-222.18"/>
<polygon fill="#1bc6a6" stroke="#1bc6a6" stroke-width="2" points="558.73,-225.67 568.89,-222.65 559.07,-218.68 558.73,-225.67"/>
</g>
<g id="node10" class="node" pointer-events="visible" data-name="GovernanceERC20._mint">

<ellipse fill="#edad56" stroke="#edad56" stroke-width="3" cx="605.94" cy="-227" rx="33.64" ry="18"/>
<text text-anchor="middle" x="605.94" y="-222.8" font-family="Times,serif" font-size="14.00">_mint</text>
</g>
<!-- GovernanceERC20.initialize&#45;&gt;GovernanceERC20._mint -->

<!-- GovernanceERC20.supportsInterface -->
<g id="node3" class="node" pointer-events="visible" data-name="GovernanceERC20.supportsInterface">

<ellipse fill="#ff9797" stroke="#ff9797" stroke-width="3" cx="106.93" cy="-389" rx="78.14" ry="18"/>
<text text-anchor="middle" x="106.93" y="-384.8" font-family="Times,serif" font-size="14.00">supportsInterface</text>
</g>
<!-- GovernanceERC20.type --><g id="edge7" class="edge" data-name="GovernanceERC20.supportsInterface-&gt;GovernanceERC20.type" data-comment="GovernanceERC20.type">

<path fill="none" stroke="#1bc6a6" stroke-width="2" d="M133.97,-370.66C174.44,-359.4 252.18,-359.12 294.53,-369.81"/>
<polygon fill="#1bc6a6" stroke="#1bc6a6" stroke-width="2" points="293.47,-373.14 304.06,-372.77 295.54,-366.46 293.47,-373.14"/>
</g>
<g id="node11" class="node" pointer-events="visible" data-name="GovernanceERC20.type">

<ellipse fill="#edad56" stroke="#edad56" stroke-width="3" cx="324.78" cy="-389" rx="27.83" ry="18"/>
<text text-anchor="middle" x="324.78" y="-384.8" font-family="Times,serif" font-size="14.00">type</text>
</g>
<!-- GovernanceERC20.supportsInterface&#45;&gt;GovernanceERC20.type -->

<!-- GovernanceERC20.supportsInterface&#45;&gt;GovernanceERC20.type -->
<!-- GovernanceERC20.supportsInterface&#45;&gt;GovernanceERC20.type --><g id="edge8" class="edge" data-name="GovernanceERC20.supportsInterface-&gt;GovernanceERC20.type">

<path fill="none" stroke="#1bc6a6" stroke-width="2" d="M168.63,-376.72C206.38,-374.64 253.74,-375.22 286.14,-378.46" style=""/>
<polygon fill="#1bc6a6" stroke="#1bc6a6" stroke-width="2" points="285.69,-381.93 296.03,-379.65 286.52,-374.98 285.69,-381.93"/>
</g>
<!-- GovernanceERC20.supportsInterface&#45;&gt;GovernanceERC20.type -->
<!-- GovernanceERC20.supportsInterface&#45;&gt;GovernanceERC20.type --><g id="edge9" class="edge" data-name="GovernanceERC20.supportsInterface-&gt;GovernanceERC20.type">

<path fill="none" stroke="#1bc6a6" stroke-width="2" d="M186.47,-389C219.05,-389 255.51,-389 282.66,-389" style=""/>
<polygon fill="#1bc6a6" stroke="#1bc6a6" stroke-width="2" points="282.54,-392.5 292.54,-389 282.54,-385.5 282.54,-392.5"/>
</g>

<!-- DaoAuthorizableUpgradeable.supportsInterface --><g id="edge10" class="edge" data-name="GovernanceERC20.supportsInterface-&gt;GovernanceERC20.type" data-comment="DaoAuthorizableUpgradeable.supportsInterface">

<path fill="none" stroke="#1bc6a6" stroke-width="2" d="M168.63,-401.28C206.38,-403.36 253.74,-402.78 286.14,-399.54" style=""/>
<polygon fill="#1bc6a6" stroke="#1bc6a6" stroke-width="2" points="286.52,-403.02 296.03,-398.35 285.69,-396.07 286.52,-403.02"/>
</g>
<g id="node15" class="node" pointer-events="visible" data-name="DaoAuthorizableUpgradeable.supportsInterface">

<ellipse fill="#edad56" stroke="#edad56" stroke-width="3" cx="324.78" cy="-88" rx="78.14" ry="18"/>
<text text-anchor="middle" x="324.78" y="-83.8" font-family="Times,serif" font-size="14.00">supportsInterface</text>
</g>
<!-- GovernanceERC20.supportsInterface&#45;&gt;DaoAuthorizableUpgradeable.supportsInterface --><g id="edge11" class="edge" data-name="GovernanceERC20.supportsInterface-&gt;GovernanceERC20.type" data-comment="GovernanceERC20.supportsInterface-&gt;DaoAuthorizableUpgradeable.supportsInterface">

<path fill="none" stroke="#1bc6a6" stroke-width="2" d="M133.97,-407.34C174.44,-418.6 252.18,-418.88 294.53,-408.19" style=""/>
<polygon fill="#1bc6a6" stroke="#1bc6a6" stroke-width="2" points="295.54,-411.54 304.06,-405.23 293.47,-404.86 295.54,-411.54"/>
</g>
<g id="edge12" class="edge" data-name="GovernanceERC20.supportsInterface-&gt;DaoAuthorizableUpgradeable.supportsInterface">

<path fill="none" stroke="white" stroke-width="2" d="M119.91,-370.14C138.39,-340.52 174.16,-280.89 197.86,-227 213.7,-190.98 200.79,-173.34 225.86,-143 237.35,-129.09 253.33,-118.05 269.05,-109.62"/>
<polygon fill="white" stroke="white" stroke-width="2" points="270.3,-112.91 277.68,-105.3 267.17,-106.65 270.3,-112.91"/>
</g>
<!-- GovernanceERC20.mint -->
<g id="node4" class="node" pointer-events="visible" data-name="GovernanceERC20.mint">

<ellipse fill="#ffbdb9" stroke="#ffbdb9" stroke-width="3" cx="324.78" cy="-335" rx="28.99" ry="18"/>
<text text-anchor="middle" x="324.78" y="-330.8" font-family="Times,serif" font-size="14.00">mint</text>
</g>
<!-- GovernanceERC20.mint&#45;&gt;GovernanceERC20._mint -->
<g id="edge13" class="edge" data-name="GovernanceERC20.mint-&gt;GovernanceERC20._mint">

<path fill="none" stroke="#1bc6a6" stroke-width="2" d="M354.72,-333.14C375.85,-330.44 404.11,-323.87 423.71,-308 444.72,-290.99 429.92,-270 451.71,-254 482.33,-231.52 525.55,-225.59 558.28,-224.81"/>
<polygon fill="#1bc6a6" stroke="#1bc6a6" stroke-width="2" points="558.14,-228.31 568.13,-224.76 558.11,-221.31 558.14,-228.31"/>
</g>
<!-- GovernanceERC20._afterTokenTransfer -->
<g id="node5" class="node" pointer-events="visible" data-name="GovernanceERC20._afterTokenTransfer">

<ellipse fill="#f2c383" stroke="#f2c383" stroke-width="3" cx="106.93" cy="-200" rx="90.86" ry="18"/>
<text text-anchor="middle" x="106.93" y="-195.8" font-family="Times,serif" font-size="14.00">_afterTokenTransfer</text>
</g>
<!-- GovernanceERC20.numCheckpoints -->
<g id="node12" class="node" pointer-events="visible" data-name="GovernanceERC20.numCheckpoints">

<ellipse fill="#edad56" stroke="#edad56" stroke-width="3" cx="324.78" cy="-173" rx="76.47" ry="18"/>
<text text-anchor="middle" x="324.78" y="-168.8" font-family="Times,serif" font-size="14.00">numCheckpoints</text>
</g>
<!-- GovernanceERC20._afterTokenTransfer&#45;&gt;GovernanceERC20.numCheckpoints -->
<g id="edge15" class="edge" data-name="GovernanceERC20._afterTokenTransfer-&gt;GovernanceERC20.numCheckpoints">

<path fill="none" stroke="#1bc6a6" stroke-width="2" d="M186.47,-190.18C204.6,-187.91 223.92,-185.49 242.18,-183.21"/>
<polygon fill="#1bc6a6" stroke="#1bc6a6" stroke-width="2" points="242.44,-186.7 251.93,-181.99 241.58,-179.76 242.44,-186.7"/>
</g>
<!-- GovernanceERC20.delegates -->
<g id="node13" class="node" pointer-events="visible" data-name="GovernanceERC20.delegates">

<ellipse fill="#edad56" stroke="#edad56" stroke-width="3" cx="324.78" cy="-227" rx="46.92" ry="18"/>
<text text-anchor="middle" x="324.78" y="-222.8" font-family="Times,serif" font-size="14.00">delegates</text>
</g>
<!-- GovernanceERC20._afterTokenTransfer&#45;&gt;GovernanceERC20.delegates -->
<g id="edge16" class="edge" data-name="GovernanceERC20._afterTokenTransfer-&gt;GovernanceERC20.delegates">

<path fill="none" stroke="#1bc6a6" stroke-width="2" d="M186.47,-209.82C212.73,-213.11 241.5,-216.71 265.89,-219.76"/>
<polygon fill="#1bc6a6" stroke="#1bc6a6" stroke-width="2" points="265.22,-223.2 275.58,-220.97 266.09,-216.26 265.22,-223.2"/>
</g>
<!-- GovernanceERC20._delegate -->
<g id="node14" class="node" pointer-events="visible" data-name="GovernanceERC20._delegate">

<ellipse fill="#edad56" stroke="#edad56" stroke-width="3" cx="324.78" cy="-281" rx="48.07" ry="18"/>
<text text-anchor="middle" x="324.78" y="-276.8" font-family="Times,serif" font-size="14.00">_delegate</text>
</g>
<!-- GovernanceERC20._afterTokenTransfer&#45;&gt;GovernanceERC20._delegate -->
<g id="edge17" class="edge" data-name="GovernanceERC20._afterTokenTransfer-&gt;GovernanceERC20._delegate">

<path fill="none" stroke="#1bc6a6" stroke-width="2" d="M142.92,-217.82C166.06,-229.15 197.29,-243.6 225.86,-254 239.95,-259.13 255.5,-263.84 269.97,-267.83"/>
<polygon fill="#1bc6a6" stroke="#1bc6a6" stroke-width="2" points="268.86,-271.16 279.42,-270.36 270.67,-264.39 268.86,-271.16"/>
</g>
<!-- DaoAuthorizableUpgradeable._afterTokenTransfer -->
<g id="node16" class="node" pointer-events="visible" data-name="DaoAuthorizableUpgradeable._afterTokenTransfer">

<ellipse fill="#edad56" stroke="#edad56" stroke-width="3" cx="324.78" cy="-34" rx="90.86" ry="18"/>
<text text-anchor="middle" x="324.78" y="-29.8" font-family="Times,serif" font-size="14.00">_afterTokenTransfer</text>
</g>
<!-- GovernanceERC20._afterTokenTransfer&#45;&gt;DaoAuthorizableUpgradeable._afterTokenTransfer -->
<g id="edge14" class="edge" data-name="GovernanceERC20._afterTokenTransfer-&gt;DaoAuthorizableUpgradeable._afterTokenTransfer">

<path fill="none" stroke="white" stroke-width="2" d="M118.72,-181.12C136.9,-151.06 176.51,-92.5 225.86,-61 231.57,-57.35 237.78,-54.19 244.2,-51.45"/>
<polygon fill="white" stroke="white" stroke-width="2" points="245.01,-54.89 253.1,-48.05 242.51,-48.35 245.01,-54.89"/>
</g>
<!-- key -->
<g id="node17" class="node" pointer-events="visible" data-name="key">

<polygon fill="#edad56" stroke="none" stroke-width="3" points="171.93,-598 41.93,-598 41.93,-510 171.93,-510 171.93,-598"/>
<text text-anchor="start" x="91.57" y="-579.4" font-family="Times,serif" font-size="14.00">Internal Call</text>
<text text-anchor="start" x="87.68" y="-559.4" font-family="Times,serif" font-size="14.00">External Call</text>
<text text-anchor="start" x="65.13" y="-539.4" font-family="Times,serif" font-size="14.00">Defined Contract</text>
<text text-anchor="start" x="51.53" y="-519.4" font-family="Times,serif" font-size="14.00">Undefined Contract</text>
</g>
<!-- key2 -->
<g id="node18" class="node" pointer-events="visible" data-name="key2">

<polygon fill="#edad56" stroke="none" stroke-width="3" points="351.78,-598 297.78,-598 297.78,-510 351.78,-510 351.78,-598"/>
<text text-anchor="start" x="314.78" y="-579.4" font-family="Times,serif" font-size="14.00">   </text>
<text text-anchor="start" x="314.78" y="-559.4" font-family="Times,serif" font-size="14.00">   </text>
<polygon fill="#445773" stroke="none" points="312.78,-534 312.78,-554 337.78,-554 337.78,-534 312.78,-534"/>
<text text-anchor="start" x="314.78" y="-539.4" font-family="Times,serif" font-size="14.00">   </text>
<polygon fill="none" stroke="#e8726d" points="314.78,-516 314.78,-532 335.78,-532 335.78,-516 314.78,-516"/>
</g>
<!-- key&#45;&gt;key2 -->
<g id="edge18" class="edge" data-name="key-&gt;key2">

<path fill="none" stroke="#1bc6a6" stroke-width="2" d="M164.93,-584C225.74,-584 244.05,-584 299.05,-584"/>
<polygon fill="#1bc6a6" stroke="#1bc6a6" stroke-width="2" points="298.76,-587.5 308.76,-584 298.76,-580.5 298.76,-587.5"/>
</g>

<!-- key&#45;&gt;key2 -->


<g id="edge19" class="edge" data-name="key-&gt;key2">

<path fill="none" stroke="white" stroke-width="2" d="M164.93,-564C225.74,-564 244.05,-564 299.05,-564" style=""/>
<polygon fill="white" stroke="white" stroke-width="2" points="298.76,-567.5 308.76,-564 298.76,-560.5 298.76,-567.5"/>
</g>
</g>
</svg>